<svg width="23" height="22" viewBox="0 0 23 22" fill="none" xmlns="http://www.w3.org/2000/svg">
<path d="M17.042 3.806C16.7809 3.806 16.5257 3.88342 16.3086 4.02846C16.0915 4.1735 15.9224 4.37966 15.8224 4.62086C15.7225 4.86206 15.6964 5.12746 15.7473 5.38352C15.7983 5.63957 15.924 5.87478 16.1086 6.05938C16.2932 6.24399 16.5284 6.3697 16.7844 6.42064C17.0405 6.47157 17.3059 6.44543 17.5471 6.34552C17.7883 6.24561 17.9945 6.07643 18.1395 5.85935C18.2846 5.64228 18.362 5.38707 18.362 5.126C18.362 4.77591 18.2229 4.44017 17.9753 4.19262C17.7278 3.94507 17.3921 3.806 17.042 3.806ZM22.102 6.468C22.0806 5.55533 21.9096 4.65234 21.596 3.795C21.3163 3.06145 20.881 2.39721 20.32 1.848C19.7753 1.28417 19.1095 0.851594 18.373 0.583C17.5179 0.259777 16.6139 0.084931 15.7 0.0659999C14.534 -6.37439e-08 14.16 0 11.168 0C8.17597 0 7.80197 -6.37439e-08 6.63597 0.0659999C5.72204 0.084931 4.81805 0.259777 3.96297 0.583C3.22781 0.854313 2.5626 1.28652 2.01597 1.848C1.45214 2.3927 1.01956 3.05848 0.750969 3.795C0.427746 4.65008 0.2529 5.55407 0.233969 6.468C0.167969 7.634 0.167969 8.008 0.167969 11C0.167969 13.992 0.167969 14.366 0.233969 15.532C0.2529 16.4459 0.427746 17.3499 0.750969 18.205C1.01956 18.9415 1.45214 19.6073 2.01597 20.152C2.5626 20.7135 3.22781 21.1457 3.96297 21.417C4.81805 21.7402 5.72204 21.9151 6.63597 21.934C7.80197 22 8.17597 22 11.168 22C14.16 22 14.534 22 15.7 21.934C16.6139 21.9151 17.5179 21.7402 18.373 21.417C19.1095 21.1484 19.7753 20.7158 20.32 20.152C20.8834 19.6048 21.3191 18.94 21.596 18.205C21.9096 17.3477 22.0806 16.4447 22.102 15.532C22.102 14.366 22.168 13.992 22.168 11C22.168 8.008 22.168 7.634 22.102 6.468ZM20.122 15.4C20.114 16.0982 19.9875 16.7901 19.748 17.446C19.5723 17.9247 19.2902 18.3573 18.923 18.711C18.5662 19.0746 18.1345 19.3561 17.658 19.536C17.002 19.7755 16.3102 19.902 15.612 19.91C14.512 19.965 14.105 19.976 11.212 19.976C8.31897 19.976 7.91197 19.976 6.81197 19.91C6.08695 19.9236 5.36502 19.8119 4.67797 19.58C4.22233 19.3909 3.81046 19.1101 3.46797 18.755C3.10287 18.4016 2.8243 17.9687 2.65397 17.49C2.38541 16.8247 2.23646 16.1171 2.21397 15.4C2.21397 14.3 2.14797 13.893 2.14797 11C2.14797 8.107 2.14797 7.7 2.21397 6.6C2.2189 5.88616 2.34921 5.17874 2.59897 4.51C2.79262 4.0457 3.08986 3.63182 3.46797 3.3C3.80216 2.92178 4.21519 2.62141 4.67797 2.42C5.34847 2.17805 6.05517 2.05159 6.76797 2.046C7.86797 2.046 8.27497 1.98 11.168 1.98C14.061 1.98 14.468 1.98 15.568 2.046C16.2662 2.05401 16.958 2.18047 17.614 2.42C18.1138 2.60552 18.5625 2.90713 18.923 3.3C19.2834 3.6379 19.5651 4.05101 19.748 4.51C19.9924 5.17983 20.119 5.88696 20.122 6.6C20.177 7.7 20.188 8.107 20.188 11C20.188 13.893 20.177 14.3 20.122 15.4ZM11.168 5.357C10.0524 5.35917 8.96243 5.69198 8.03589 6.31336C7.10935 6.93474 6.38778 7.81682 5.96237 8.84813C5.53695 9.87944 5.42676 11.0137 5.64574 12.1076C5.86472 13.2015 6.40303 14.206 7.19265 14.9941C7.98228 15.7822 8.98778 16.3185 10.0821 16.5354C11.1764 16.7522 12.3105 16.6398 13.341 16.2124C14.3715 15.785 15.2521 15.0617 15.8717 14.1339C16.4913 13.2062 16.822 12.1156 16.822 11C16.8234 10.2576 16.6781 9.52227 16.3943 8.83625C16.1106 8.15024 15.694 7.52709 15.1685 7.00266C14.6431 6.47822 14.0191 6.06285 13.3325 5.78042C12.646 5.498 11.9103 5.3541 11.168 5.357ZM11.168 14.663C10.4435 14.663 9.73529 14.4482 9.13291 14.0457C8.53054 13.6432 8.06104 13.0711 7.7838 12.4018C7.50655 11.7324 7.43401 10.9959 7.57535 10.2854C7.71669 9.57483 8.06556 8.92215 8.57784 8.40987C9.09012 7.89759 9.7428 7.54872 10.4534 7.40738C11.1639 7.26605 11.9004 7.33858 12.5697 7.61583C13.2391 7.89307 13.8111 8.36257 14.2136 8.96495C14.6161 9.56732 14.831 10.2755 14.831 11C14.831 11.481 14.7362 11.9574 14.5521 12.4018C14.3681 12.8462 14.0982 13.25 13.7581 13.5901C13.418 13.9303 13.0142 14.2001 12.5697 14.3842C12.1253 14.5683 11.649 14.663 11.168 14.663Z" fill="#A8A7A7"/>
</svg>
