<svg width="24" height="22" viewBox="0 0 24 22" fill="none" xmlns="http://www.w3.org/2000/svg">
<g clip-path="url(#clip0_488_49628)">
<path d="M0.917969 2.55555C0.917969 1.8148 1.17605 1.20369 1.69218 0.722221C2.20831 0.240733 2.87931 0 3.70513 0C4.51622 0 5.17244 0.237022 5.67384 0.71111C6.18997 1.2 6.44805 1.83702 6.44805 2.62222C6.44805 3.33333 6.19736 3.92591 5.69596 4.39999C5.17983 4.88888 4.50146 5.13333 3.66089 5.13333H3.63877C2.82768 5.13333 2.17146 4.88888 1.67006 4.39999C1.16866 3.91111 0.917969 3.29628 0.917969 2.55555ZM1.20553 22V7.15555H6.11625V22H1.20553ZM8.83705 22H13.7478V13.7111C13.7478 13.1926 13.8068 12.7926 13.9247 12.5111C14.1312 12.0074 14.4446 11.5815 14.8648 11.2333C15.2851 10.8852 15.8123 10.7111 16.4464 10.7111C18.0981 10.7111 18.9239 11.8296 18.9239 14.0666V22H23.8346V13.4889C23.8346 11.2963 23.3185 9.63332 22.2862 8.49999C21.2539 7.36666 19.8899 6.79999 18.194 6.79999C16.2916 6.79999 14.8095 7.62221 13.7478 9.26665V9.3111H13.7256L13.7478 9.26665V7.15555H8.83705C8.86654 7.62961 8.88129 9.10368 8.88129 11.5778C8.88129 14.0518 8.86654 17.5259 8.83705 22Z" fill="#EE0000"/>
</g>
<defs>
<clipPath id="clip0_488_49628">
<rect width="22.9167" height="22" fill="white" transform="translate(0.917969)"/>
</clipPath>
</defs>
</svg>
