<svg width="29" height="22" viewBox="0 0 29 22" fill="none" xmlns="http://www.w3.org/2000/svg">
<path d="M26.0646 21.7642H2.93544C1.31692 21.7642 0 20.4473 0 18.8287V2.93544C0 1.31692 1.31692 0 2.93544 0H26.0646C27.6831 0 29 1.31692 29 2.93544V18.8287C29 20.4476 27.6831 21.7642 26.0646 21.7642ZM2.93544 1.93333C2.38283 1.93333 1.93333 2.38316 1.93333 2.93544V18.8287C1.93333 19.3813 2.38283 19.8308 2.93544 19.8308H26.0646C26.6172 19.8308 27.0667 19.381 27.0667 18.8287V2.93544C27.0667 2.38283 26.6168 1.93333 26.0646 1.93333H2.93544Z" fill="#A8A7A7"/>
<path d="M14.5014 14.2419C12.7588 14.2419 11.0862 13.5033 9.9123 12.2157L0.804688 2.22234L2.23374 0.919922L11.3414 10.913C12.1614 11.8126 13.2837 12.3085 14.5014 12.3085C15.7191 12.3085 16.8414 11.813 17.6617 10.913L26.7697 0.919922L28.1984 2.22234L19.0902 12.2154C17.9166 13.5033 16.244 14.2419 14.5014 14.2419Z" fill="#A8A7A7"/>
<path d="M9.71419 10.6329L0.855469 19.5369L2.22601 20.9004L11.0847 11.9965L9.71419 10.6329Z" fill="#A8A7A7"/>
<path d="M19.2867 10.6328L17.916 11.9963L26.7747 20.9015L28.1455 19.538L19.2867 10.6328Z" fill="#A8A7A7"/>
</svg>
