<svg width="30" height="23" viewBox="0 0 30 23" fill="none" xmlns="http://www.w3.org/2000/svg">
<g clip-path="url(#clip0_537_652)">
<path d="M29.7516 2.47729C29.4826 1.75011 29.0036 1.12373 28.3782 0.681288C27.7528 0.238841 27.0106 0.00123654 26.2501 0L3.75005 0C2.97656 0.00210549 2.22263 0.248661 1.59157 0.70588C0.960511 1.1631 0.483203 1.80861 0.225052 2.55396C0.0739848 2.96272 -0.00228278 3.39638 5.20275e-05 3.83333V19.1667C0.000630506 19.9297 0.223988 20.6753 0.641528 21.3078C1.05907 21.9404 1.65179 22.4311 2.3438 22.7173C2.7899 22.9048 3.26771 23.0009 3.75005 23H26.2501C26.7084 23.0027 27.1627 22.9114 27.586 22.7317C28.4129 22.4213 29.1033 21.8176 29.5313 21.0306C29.8401 20.4602 30.0014 19.8186 30.0001 19.1667V3.83333C29.9996 3.36954 29.9154 2.90981 29.7516 2.47729V2.47729ZM2.49849 3.83333C2.49972 3.49441 2.63198 3.16973 2.86643 2.93007C3.10087 2.69042 3.4185 2.55522 3.75005 2.55396H26.2501C26.5816 2.55522 26.8992 2.69042 27.1337 2.93007C27.3681 3.16973 27.5004 3.49441 27.5016 3.83333V4.07771L17.536 11.7444L15.4688 13.3783L15.0001 13.7377L14.5313 13.364L12.4407 11.7683L2.49849 4.12562V3.83333ZM2.49849 19.1667V7.32167L10.3641 13.364L2.52661 19.3823C2.50926 19.3117 2.49983 19.2394 2.49849 19.1667V19.1667ZM5.31099 20.446L12.4501 14.9644L14.2501 16.354C14.4656 16.5218 14.7291 16.6128 15.0001 16.6128C15.271 16.6128 15.5345 16.5218 15.7501 16.354L17.536 14.974L24.6235 20.446H5.31099ZM27.5016 19.1667C27.5016 19.2575 27.489 19.3478 27.4641 19.435L19.6126 13.364L27.5016 7.26896V19.1667Z" fill="#A8A7A7"/>
</g>
<defs>
<clipPath id="clip0_537_652">
<rect width="30" height="23" fill="white"/>
</clipPath>
</defs>
</svg>
