<svg width="60" height="38" viewBox="0 0 60 38" fill="none" xmlns="http://www.w3.org/2000/svg">
<path d="M0.0195312 1.02539H2.67578C2.68229 1.0319 2.68555 1.03841 2.68555 1.04492V2.87109C2.68555 2.88411 2.68229 2.89062 2.67578 2.89062H0.0195312C0.00651042 2.89062 0 2.88411 0 2.87109V1.04492C0 1.0319 0.00651042 1.02539 0.0195312 1.02539ZM9.66797 1.02539V1.03516C9.61589 1.10677 7.99479 3.18034 4.80469 7.25586C5.73568 8.61003 7.49023 11.1491 10.0684 14.873C10.0684 14.8796 10.0944 14.9154 10.1465 14.9805V15H7.00195C6.97591 14.974 5.56641 12.946 2.77344 8.91602C2.72135 8.85742 2.69531 8.82161 2.69531 8.80859H2.68555V14.9805C2.68555 14.9935 2.68229 15 2.67578 15H0.0195312C0.00651042 15 0 14.9935 0 14.9805V5.83984C0 5.82682 0.00651042 5.82031 0.0195312 5.82031H2.68555C2.77669 5.72266 4.03971 4.12435 6.47461 1.02539H9.66797ZM12.0508 0.976562H14.6289C14.6419 0.976562 14.6484 0.983073 14.6484 0.996094V9.9707C14.6484 10.9603 14.8079 11.6016 15.127 11.8945C15.4915 12.2917 15.9863 12.4902 16.6113 12.4902C17.3926 12.4902 17.9818 12.1908 18.3789 11.5918C18.5091 11.3314 18.5742 11.1328 18.5742 10.9961C18.6458 10.7031 18.6816 10.1204 18.6816 9.24805V6.44531C18.6816 6.43229 18.6849 6.42578 18.6914 6.42578H21.2695C21.2826 6.42578 21.2891 6.43229 21.2891 6.44531V9.02344C21.2891 10.7357 21.1784 11.8294 20.957 12.3047C20.4883 13.3594 19.7559 14.1243 18.7598 14.5996C18.1543 14.8665 17.4544 15 16.6602 15C15.0977 15 13.8411 14.4206 12.8906 13.2617C12.7083 13.0078 12.5651 12.7604 12.4609 12.5195C12.1745 11.7773 12.0312 10.7324 12.0312 9.38477V0.996094C12.0312 0.983073 12.0378 0.976562 12.0508 0.976562ZM18.6914 0.976562H21.2695C21.2826 0.976562 21.2891 0.983073 21.2891 0.996094V3.51562C21.2891 3.52865 21.2826 3.53516 21.2695 3.53516H18.6914C18.6849 3.53516 18.6816 3.52865 18.6816 3.51562V0.996094C18.6816 0.983073 18.6849 0.976562 18.6914 0.976562ZM23.2617 0.947266H25.8008C25.8659 1.03841 27.6237 3.73372 31.0742 9.0332C31.5625 9.77539 31.8099 10.1595 31.8164 10.1855H31.8262V6.5625C31.8262 6.54948 31.8327 6.54297 31.8457 6.54297H34.4824C34.4954 6.54948 34.502 6.55599 34.502 6.5625V14.9805C34.502 14.9935 34.4954 15 34.4824 15H31.9434C31.7611 14.7396 30.2734 12.4642 27.4805 8.17383C26.5299 6.72852 26.0124 5.93424 25.9277 5.79102H25.918V14.9805C25.918 14.9935 25.9115 15 25.8984 15H23.2617C23.2487 15 23.2422 14.9935 23.2422 14.9805V0.966797C23.2422 0.953776 23.2487 0.947266 23.2617 0.947266ZM31.8457 0.947266H34.4824C34.4954 0.947266 34.502 0.953776 34.502 0.966797V3.55469C34.502 3.56771 34.4954 3.57422 34.4824 3.57422H31.8457C31.8327 3.57422 31.8262 3.56771 31.8262 3.55469V0.966797C31.8262 0.953776 31.8327 0.947266 31.8457 0.947266ZM44.0527 0.976562C44.0723 0.976562 44.2253 1.39323 44.5117 2.22656C46.3021 7.27214 47.2135 9.85352 47.2461 9.9707H44.5117C44.4922 9.93815 44.3197 9.44987 43.9941 8.50586L42.7637 5.05859H42.7539C42.6107 5.47526 41.4258 8.77604 39.1992 14.9609C39.1992 14.987 39.1895 15 39.1699 15H36.4648C36.4518 15 36.4453 14.9935 36.4453 14.9805C36.888 13.75 38.1934 10.127 40.3613 4.11133C41.084 2.10612 41.4616 1.0612 41.4941 0.976562H44.0527ZM45.3906 12.3926H48.0957C48.1152 12.3926 48.1706 12.5391 48.2617 12.832L49.0332 14.9902L49.0137 15H46.2988C46.2858 14.9935 46.1784 14.7038 45.9766 14.1309L45.3711 12.4023L45.3906 12.3926ZM51.0742 0.986328H53.7012C53.7142 0.986328 53.7207 0.992839 53.7207 1.00586V9.48242C53.7207 9.49544 53.7142 9.50195 53.7012 9.50195H51.0742C51.0612 9.50195 51.0547 9.49544 51.0547 9.48242V1.00586C51.0547 0.992839 51.0612 0.986328 51.0742 0.986328ZM51.0742 12.4609H57.5977C57.6042 12.4609 57.6074 12.4674 57.6074 12.4805V14.9805C57.6074 14.9935 57.6042 15 57.5977 15H51.0742C51.0612 15 51.0547 14.9935 51.0547 14.9805V12.4805C51.0547 12.4674 51.0612 12.4609 51.0742 12.4609ZM7.14844 23.9863C8.65234 23.9863 10 24.3379 11.1914 25.041C11.5169 25.2428 11.8815 25.5228 12.2852 25.8809C12.5456 26.1217 12.7539 26.3301 12.9102 26.5059C12.9036 26.5059 12.3079 27.0918 11.123 28.2637C9.98372 27.0723 8.66536 26.4766 7.16797 26.4766C5.50781 26.4766 4.19271 27.1699 3.22266 28.5566C2.77344 29.2793 2.54883 30.0573 2.54883 30.8906V30.998C2.54883 32.2611 3.01758 33.3483 3.95508 34.2598C4.86654 35.1322 5.99284 35.5684 7.33398 35.5684C9.07878 35.5684 10.2962 34.8066 10.9863 33.2832H7.14844C7.13542 33.2832 7.12891 33.2767 7.12891 33.2637V30.9102C7.13542 30.9036 7.14193 30.9004 7.14844 30.9004H13.8281H13.8477C13.8542 31.2129 13.8574 31.4342 13.8574 31.5645C13.8574 32.7819 13.4766 33.9863 12.7148 35.1777C11.4453 37.0592 9.61263 38 7.2168 38C5.16602 38 3.45378 37.3392 2.08008 36.0176C1.64388 35.5618 1.32812 35.1712 1.13281 34.8457C0.377604 33.6152 0 32.3555 0 31.0664V30.8027C0 29.1556 0.576172 27.6647 1.72852 26.3301C3.12174 24.7676 4.92839 23.9863 7.14844 23.9863ZM15.8398 24.0059H18.5059C18.5189 24.0059 18.5254 24.0124 18.5254 24.0254V26.3301C18.5254 26.3366 18.5189 26.3398 18.5059 26.3398H15.8398C15.8268 26.3398 15.8203 26.3366 15.8203 26.3301V24.0254C15.8203 24.0124 15.8268 24.0059 15.8398 24.0059ZM23.2227 24.0059H25.8789C25.8919 24.0059 25.8984 24.0124 25.8984 24.0254V37.9805C25.8984 37.9935 25.8919 38 25.8789 38H23.2227C23.2096 38 23.2031 37.9935 23.2031 37.9805V31.8672H18.5254V37.9805C18.5254 37.9935 18.5189 38 18.5059 38H15.8398C15.8268 38 15.8203 37.9935 15.8203 37.9805V29.2988C15.8203 29.2858 15.8268 29.2793 15.8398 29.2793H23.2031V24.0254C23.2031 24.0124 23.2096 24.0059 23.2227 24.0059ZM27.8125 23.9766H30.3906C30.4036 23.9766 30.4102 23.9831 30.4102 23.9961V32.9707C30.4102 33.9603 30.5697 34.6016 30.8887 34.8945C31.2533 35.2917 31.748 35.4902 32.373 35.4902C33.1543 35.4902 33.7435 35.1908 34.1406 34.5918C34.2708 34.3314 34.3359 34.1328 34.3359 33.9961C34.4076 33.7031 34.4434 33.1204 34.4434 32.248V29.4453C34.4434 29.4323 34.4466 29.4258 34.4531 29.4258H37.0312C37.0443 29.4258 37.0508 29.4323 37.0508 29.4453V32.0234C37.0508 33.7357 36.9401 34.8294 36.7188 35.3047C36.25 36.3594 35.5176 37.1243 34.5215 37.5996C33.916 37.8665 33.2161 38 32.4219 38C30.8594 38 29.6029 37.4206 28.6523 36.2617C28.4701 36.0078 28.3268 35.7604 28.2227 35.5195C27.9362 34.7773 27.793 33.7324 27.793 32.3848V23.9961C27.793 23.9831 27.7995 23.9766 27.8125 23.9766ZM34.4531 23.9766H37.0312C37.0443 23.9766 37.0508 23.9831 37.0508 23.9961V26.5156C37.0508 26.5286 37.0443 26.5352 37.0312 26.5352H34.4531C34.4466 26.5352 34.4434 26.5286 34.4434 26.5156V23.9961C34.4434 23.9831 34.4466 23.9766 34.4531 23.9766ZM39.0234 23.8984H42.3633C44.7461 23.8984 46.4421 24.2956 47.4512 25.0898C47.6335 25.1875 47.9232 25.4479 48.3203 25.8711C49.5703 27.2643 50.1953 29.0254 50.1953 31.1543C50.1953 32.9902 49.6777 34.569 48.6426 35.8906C48.1999 36.3854 47.8418 36.7207 47.5684 36.8965C47.1973 37.1634 46.8685 37.3555 46.582 37.4727C45.8789 37.8242 44.4792 38 42.3828 38H39.0234C39.0104 38 39.0039 37.9935 39.0039 37.9805V29.4648C39.0039 29.4583 39.0104 29.4551 39.0234 29.4551H41.6602C41.6732 29.4551 41.6797 29.4583 41.6797 29.4648V35.373H42.9688C44.3945 35.373 45.3776 35.168 45.918 34.7578C46.1979 34.5625 46.4616 34.2923 46.709 33.9473C47.2233 33.1855 47.4805 32.2318 47.4805 31.0859C47.4805 29.4453 46.9792 28.2116 45.9766 27.3848C45.2018 26.7858 44.1113 26.4863 42.7051 26.4863H39.0234C39.0104 26.4863 39.0039 26.4831 39.0039 26.4766V23.918C39.0039 23.9049 39.0104 23.8984 39.0234 23.8984ZM52.2656 23.9766H59.8828C59.8958 23.9766 59.9023 23.9831 59.9023 23.9961V26.5645C59.9023 26.5775 59.8958 26.584 59.8828 26.584H52.2656C52.2526 26.584 52.2461 26.5775 52.2461 26.5645V23.9961C52.2461 23.9831 52.2526 23.9766 52.2656 23.9766ZM52.2656 29.123H59.8828C59.8958 29.123 59.9023 29.1296 59.9023 29.1426V31.6719C59.9023 31.6849 59.8958 31.6914 59.8828 31.6914H54.9023V35.373H59.8828C59.8958 35.3796 59.9023 35.3861 59.9023 35.3926V37.9805C59.9023 37.9935 59.8958 38 59.8828 38H52.2656C52.2526 38 52.2461 37.9935 52.2461 37.9805V29.1426C52.2461 29.1296 52.2526 29.123 52.2656 29.123Z" fill="white"/>
</svg>
